<svg xmlns="http://www.w3.org/2000/svg" height="24px" viewBox="0 -960 960 960" width="24px" fill="#1f1f1f"><path d="M160-120q-33 0-56.5-23.5T80-200q0-17 6.5-32.5T104-260l132-132q-6-16-10.5-32.5T221-458q0-95 67.5-162.5T451-688q66 0 125.5 31.5T680-568l72-72q11-11 27-11t28 12q12 12 12 28t-11 27l-72 72q57 60 88.5 119.5T856-266q0 95-67.5 162.5T626-36q-17 0-33.5-4.5T560-51L428 81q-12 12-27.5 18.5T368 106q-33 0-56.5-23.5T288 26q0-17 6-32.5T312-34l132-132q-16-6-32.5-10.5T378-181q-95 0-162.5-67.5T148-411q0-17 4.5-33.5T163-477l-59 59q-11 11-27.5 11T48-419q-12-12-12-28t11-27l113-113Zm318-256q43 0 73.5-30.5T582-480q0-43-30.5-73.5T478-584q-43 0-73.5 30.5T374-480q0 43 30.5 73.5T478-376Z"/></svg>
