<svg xmlns="http://www.w3.org/2000/svg" height="24px" viewBox="0 -960 960 960" width="24px" fill="#1f1f1f"><path d="m644-428-58-58q2-6 3-12t1-12q0-45-31.5-76.5T482-618q-6 0-12 .5t-12 2.5l-58-58q20-9 40.5-14t41.5-5q75 0 127.5 52.5T662-510q0 21-5 41.5T644-428Zm133 133-58-58q41-29 77.5-67.5T880-500q-71-108-176.5-174T480-740q-54 0-106 14.5T274-683l-58-58q61-35 128.5-53T480-812q118 0 223.5 66T880-572q-23 35-48.5 66.5T777-295ZM792-56 56-792l56-56 736 736-56 56ZM480-320q11 0 21.5-1t20.5-3L264-602q-17 21-26.5 47t-9.5 55q0 75 52.5 127.5T408-320q18 0 35.5-3.5T480-320Z"/></svg>
